<?xml version="1.0" encoding="UTF-8"?>
<svg width="45px" height="45px" viewBox="0 0 45 45" version="1.1" xmlns="http://www.w3.org/2000/svg" xmlns:xlink="http://www.w3.org/1999/xlink">
    <!-- Generator: Sketch 39.1 (31720) - http://www.bohemiancoding.com/sketch -->
    <title>icon-exit-slideshow</title>
    <desc>Created with Sketch.</desc>
    <defs></defs>
    <g id="Symbols" stroke="none" stroke-width="1" fill="none" fill-rule="evenodd">
        <g id="icon-exit-slideshow">
            <g id="Exit">
                <path d="M22.5,45 C34.9264069,45 45,34.9264069 45,22.5 C45,10.0735931 34.9264069,0 22.5,0 C10.0735931,0 0,10.0735931 0,22.5 C0,34.9264069 10.0735931,45 22.5,45 Z" id="Oval" fill-opacity="0.35" fill="#000000"></path>
                <polygon id="Line" fill="#FFFFFF" points="33.1968901 34.6111036 33.9039968 35.3182104 35.3182104 33.9039968 34.6111036 33.1968901 11.5691757 10.1549622 10.862069 9.4478554 9.4478554 10.862069 10.1549622 11.5691757"></polygon>
                <polygon id="Line" fill="#FFFFFF" points="34.6111036 11.5691757 35.3182104 10.862069 33.9039968 9.4478554 33.1968901 10.1549622 10.1549622 33.1968901 9.4478554 33.9039968 10.862069 35.3182104 11.5691757 34.6111036"></polygon>
            </g>
        </g>
    </g>
</svg>