<?xml version="1.0" standalone="no"?>
<!DOCTYPE svg PUBLIC "-//W3C//DTD SVG 20010904//EN"
 "http://www.w3.org/TR/2001/REC-SVG-20010904/DTD/svg10.dtd">
<svg version="1.0" xmlns="http://www.w3.org/2000/svg"
 width="16.000000pt" height="16.000000pt" viewBox="0 0 16.000000 16.000000"
 preserveAspectRatio="xMidYMid meet">
<metadata>
Created by potrace 1.11, written by Peter Selinger 2001-2013
</metadata>
<g transform="translate(0.000000,16.000000) scale(0.006154,-0.006154)"
fill="#000000" stroke="none">
<path d="M1627 2324 c-7 -12 -18 -81 -22 -144 -2 -25 -7 -56 -12 -70 -5 -14
-11 -45 -12 -69 -3 -56 -13 -76 -41 -78 -31 -3 -38 -13 -17 -27 17 -13 22 -60
11 -103 -6 -22 -31 -36 -68 -37 -31 -1 -30 -24 3 -41 35 -18 42 -57 26 -140
-2 -11 -4 -26 -4 -32 -1 -15 -105 -17 -163 -4 -30 7 -38 6 -38 -5 0 -8 7 -14
15 -14 35 0 65 -23 65 -51 0 -34 -58 -113 -87 -117 -28 -4 -36 23 -18 58 8 16
15 31 15 33 0 3 -29 7 -65 9 -63 4 -68 6 -106 49 -75 82 -91 107 -84 129 4 14
15 20 35 20 34 0 47 26 20 40 -10 5 -26 10 -34 10 -19 0 -22 47 -4 85 9 19 19
25 45 25 41 0 43 18 3 45 -32 22 -32 14 -11 165 6 41 11 81 11 88 0 6 8 12 18
12 26 0 42 20 42 53 0 25 -3 27 -22 21 -13 -4 -29 -7 -36 -7 -13 0 -38 -75
-48 -144 -3 -24 -13 -72 -23 -106 -15 -56 -20 -64 -55 -80 -40 -19 -42 -25
-10 -30 38 -6 42 -14 32 -69 -5 -29 -11 -55 -14 -57 -4 -4 -32 -8 -76 -10 -16
0 -28 -6 -28 -12 0 -16 31 -38 52 -39 38 0 27 -25 -42 -95 -44 -44 -68 -75
-61 -79 16 -10 -8 -51 -69 -116 -36 -39 -49 -61 -46 -75 7 -27 -15 -53 -55
-67 -19 -6 -55 -32 -80 -58 -78 -81 -158 -121 -241 -122 -66 0 -169 13 -210
27 -52 17 -68 4 -35 -29 14 -14 34 -26 44 -26 29 -1 91 -26 131 -52 20 -14 71
-47 113 -74 58 -37 78 -56 86 -81 9 -29 8 -33 -16 -43 -14 -6 -53 -12 -86 -14
-33 -3 -80 -7 -105 -10 -25 -4 -62 -8 -84 -11 -40 -5 -53 -11 -44 -20 6 -6
123 -32 183 -41 22 -3 60 -18 85 -33 93 -56 119 -60 300 -46 71 6 95 4 145
-13 44 -15 87 -20 161 -21 76 0 116 -5 162 -21 39 -14 76 -20 104 -17 24 2 54
-1 68 -8 47 -24 145 -39 255 -40 61 -1 126 -5 145 -9 l35 -7 -37 21 c-21 11
-77 28 -125 36 -49 9 -98 21 -111 27 -21 10 -22 13 -8 23 23 16 131 25 163 13
16 -5 50 -21 77 -35 28 -13 60 -24 72 -24 13 0 35 -5 51 -11 15 -5 46 -11 68
-13 22 -1 49 -7 60 -13 30 -16 86 -21 115 -10 14 5 63 13 110 18 47 4 96 12
110 18 22 8 18 10 -27 12 -29 1 -57 3 -63 4 -5 1 -14 3 -20 4 -33 4 18 34 128
77 41 16 94 15 172 -3 24 -5 23 -4 -8 24 -28 26 -30 31 -16 37 29 11 -2 30
-52 32 -25 1 -48 4 -51 7 -3 3 9 23 26 44 23 29 39 39 63 41 18 2 37 7 42 12
12 12 12 12 -131 10 -62 -1 -113 2 -113 6 0 4 7 16 17 26 19 21 15 27 -23 34
-46 8 -41 14 14 15 29 1 61 3 72 4 11 1 30 3 42 4 32 2 7 24 -29 25 -25 1 -33
11 -75 96 -26 51 -46 96 -43 98 2 2 0 15 -5 28 -12 30 -4 31 19 3 l17 -21 27
28 c15 14 27 30 27 34 0 5 19 21 43 37 l43 28 -31 41 -32 41 -38 -18 c-47 -23
-65 -24 -65 -4 0 20 -19 19 -57 -4 -35 -22 -43 -19 -43 16 0 16 6 23 19 23 11
0 23 5 27 11 8 14 -14 29 -44 29 -25 0 -62 51 -57 78 2 10 4 23 4 30 1 7 14
12 31 12 17 0 30 4 30 10 0 5 -13 31 -30 57 -37 58 -39 76 -6 67 43 -10 45 2
16 88 -15 46 -26 96 -23 113 19 138 19 166 4 163 -15 -3 -40 -101 -56 -216 -7
-51 -22 -93 -32 -91 -5 1 -15 1 -23 0 -13 -1 -13 -3 -1 -10 8 -5 16 -32 19
-65 5 -62 8 -59 -67 -56 -29 1 -41 -2 -37 -9 4 -6 16 -11 26 -11 30 0 48 -26
44 -65 -4 -48 -11 -57 -42 -55 -40 3 -52 1 -52 -9 0 -5 16 -12 35 -15 19 -4
35 -11 35 -15 0 -15 -51 -106 -67 -118 -11 -9 -21 -9 -35 -2 -10 6 -27 7 -37
4 -21 -6 -29 7 -26 49 2 27 1 28 -11 11 -8 -10 -17 -33 -20 -52 -16 -84 -46
-25 -45 87 2 116 1 115 52 116 62 2 61 2 49 23 -9 18 -20 22 -152 47 -33 7
-48 42 -25 59 13 9 14 18 5 53 -12 48 -5 74 16 66 8 -3 23 -1 32 4 15 8 14 12
-12 28 -53 32 -74 57 -74 85 0 28 23 55 39 45 23 -15 21 18 -2 40 -26 24 -26
25 -21 146 5 126 9 138 50 138 26 0 50 26 59 63 6 23 4 27 -13 27 -12 0 -24
-4 -27 -10 -9 -14 -52 -13 -57 2 -3 8 -7 8 -11 2z m-52 -691 c-10 -41 -22 -16
-18 39 6 89 17 112 21 43 2 -32 0 -70 -3 -82z m-610 -65 c-10 -58 -15 -66 -48
-71 -50 -8 -54 8 -13 58 45 55 69 60 61 13z m633 -77 c25 -7 42 -18 42 -26 0
-16 0 -16 -47 -20 -18 -1 -34 2 -34 6 -1 5 -2 14 -3 19 -2 20 -18 10 -42 -25
-28 -42 -29 -45 -8 -45 9 0 14 -7 12 -17 -2 -14 -15 -19 -50 -21 -39 -3 -49 1
-62 20 -17 24 -20 55 -10 83 16 40 110 52 202 26z m-567 -54 l22 -16 -34 -34
c-29 -28 -42 -34 -86 -36 -43 -2 -53 1 -53 14 0 20 17 53 39 78 19 22 76 19
112 -6z m160 -24 c1 -10 1 -44 -1 -76 -1 -33 3 -64 10 -72 21 -25 5 -45 -27
-35 -15 5 -40 12 -55 15 -32 6 -38 35 -8 35 11 0 20 3 21 8 1 4 2 31 4 59 2
54 17 83 41 83 8 0 15 -8 15 -17z m899 -82 c0 -5 -7 -11 -15 -15 -9 -3 -15 0
-15 9 0 8 7 15 15 15 8 0 15 -4 15 -9z m-672 -16 c7 -3 10 -10 6 -16 -5 -9
-130 -8 -194 1 -3 0 3 7 12 14 17 12 142 13 176 1z m572 -30 c0 -8 -7 -15 -15
-15 -16 0 -20 12 -8 23 11 12 23 8 23 -8z m-1122 -4 c6 0 12 -5 12 -11 0 -6
-28 -10 -65 -10 -36 0 -65 4 -65 9 0 16 36 19 118 12z m720 -52 c26 -10 28
-39 8 -116 -16 -61 -35 -90 -70 -109 -27 -13 -55 -10 -57 7 -1 5 -3 14 -4 19
-1 6 -3 12 -4 15 0 3 -17 -10 -37 -29 -36 -34 -73 -49 -93 -37 -25 16 -61 84
-61 116 0 27 9 44 43 80 46 48 77 56 131 35 23 -8 26 -7 32 15 6 23 9 24 48
18 22 -3 51 -10 64 -14z m514 -45 c0 -52 9 -72 62 -134 79 -92 64 -110 -101
-116 -65 -3 -128 -6 -140 -8 -13 -2 -23 -2 -23 0 0 4 120 195 165 262 15 23
30 40 32 38 3 -3 5 -22 5 -42z m-239 29 c-7 -2 -21 -2 -30 0 -10 3 -4 5 12 5
17 0 24 -2 18 -5z m-842 -33 c19 -10 18 -45 -2 -82 -10 -18 -57 -54 -63 -47
-1 2 -7 26 -12 52 -5 27 -13 49 -19 49 -5 0 -19 -16 -29 -36 -11 -20 -31 -50
-45 -67 -22 -26 -34 -31 -81 -33 -30 -2 -61 -1 -67 1 -31 12 -22 126 12 153 5
4 37 11 70 15 33 3 62 8 64 10 7 8 154 -6 172 -15z m820 3 c27 -5 28 -7 12
-19 -27 -20 -47 -17 -74 12 l-24 27 29 -7 c15 -4 41 -10 57 -13z m-103 -30
c18 -14 31 -32 30 -41 -2 -11 7 -18 30 -23 38 -8 51 -17 36 -27 -5 -4 -34 -36
-64 -72 -54 -63 -56 -65 -95 -60 -35 4 -40 8 -43 34 -5 39 16 154 35 193 16
35 18 35 71 -4z m-603 -76 c-21 -96 -23 -108 -24 -134 -1 -13 -7 -23 -16 -23
-26 0 -22 90 7 175 41 118 61 107 33 -18z m-520 50 c-1 -18 -6 -51 -10 -75 -4
-23 -8 -52 -9 -65 -7 -59 -16 -70 -55 -64 -20 3 -65 19 -101 35 l-65 30 80 -5
c61 -4 83 -2 92 8 9 12 44 104 59 157 6 23 11 12 9 -21z m1231 -169 c-13 -31
-46 -60 -46 -40 0 11 51 84 56 79 2 -2 -2 -20 -10 -39z m-543 -9 c32 -18 4
-32 -68 -33 -36 -1 -65 1 -65 5 0 8 68 34 94 36 11 1 28 -3 39 -8z m-490 -24
c32 -16 37 -23 37 -52 0 -41 -6 -41 -39 -3 -22 24 -36 30 -86 36 -63 7 -95 21
-74 34 20 13 123 3 162 -15z m1291 -36 c-6 -11 -24 -2 -24 11 0 5 7 7 15 4 8
-4 12 -10 9 -15z m-628 -36 c-2 -13 -14 -19 -39 -21 -32 -3 -37 0 -37 17 0 18
6 21 39 21 32 0 39 -3 37 -17z m119 -2 c10 -17 -31 -33 -44 -17 -6 7 -8 16 -4
19 10 10 41 8 48 -2z m-980 -95 c28 -7 61 -10 75 -6 54 16 160 11 206 -9 24
-11 44 -22 44 -24 0 -2 -28 -2 -62 -1 -35 1 -88 -2 -118 -7 -98 -18 -181 -13
-235 12 l-49 23 30 13 c36 15 47 15 109 -1z m793 -77 c45 -13 82 -26 82 -29 0
-3 -42 -5 -92 -4 -67 0 -102 5 -125 17 -24 13 -47 16 -90 12 l-58 -5 50 19
c63 24 126 21 233 -10z m536 1 c-6 -6 -19 -12 -30 -14 -10 -2 -37 -8 -59 -14
-57 -14 -108 -13 -152 3 l-38 14 75 1 c41 1 84 5 95 10 30 13 121 12 109 0z
m147 -70 c-40 -34 -120 -46 -160 -25 -14 8 -21 15 -16 16 6 1 25 3 43 5 18 2
43 9 55 16 30 16 79 26 96 20 11 -4 6 -13 -18 -32z"/>
<path d="M369 609 c-20 -12 13 -35 80 -55 29 -9 68 -24 85 -35 23 -13 46 -17
86 -15 35 2 71 -3 100 -14 25 -9 61 -20 80 -24 19 -3 45 -8 57 -10 11 -3 54 5
95 16 40 11 98 24 128 30 30 5 62 12 70 15 24 9 -30 21 -76 17 -192 -18 -235
-17 -282 7 -34 16 -74 25 -142 30 -105 9 -189 22 -236 37 -18 6 -37 6 -45 1z"/>
</g>
</svg>
