<?xml version="1.0" encoding="UTF-8"?>
<svg width="9px" height="8px" viewBox="0 0 9 8" version="1.1" xmlns="http://www.w3.org/2000/svg" xmlns:xlink="http://www.w3.org/1999/xlink">
    <!-- Generator: Sketch 39.1 (31720) - http://www.bohemiancoding.com/sketch -->
    <title>icon-bullet</title>
    <desc>Created with Sketch.</desc>
    <defs></defs>
    <g  stroke="none" stroke-width="1" fill="none" fill-rule="evenodd">
        <g transform="translate(-38.000000, -183.000000)" fill="#000000">
            <path d="M40.59,184.924 C40.7340007,184.779999 40.9409986,184.528002 41.211,184.168 C41.4810013,183.807998 41.7509986,183.529001 42.021,183.331 C42.2910014,183.132999 42.5699986,183.034 42.858,183.034 C43.1460014,183.034 43.8839941,183.735993 45.072,185.14 C45.1800005,185.248001 45.3959984,185.427999 45.72,185.68 C46.3680032,186.292003 46.692,186.714999 46.692,186.949 C46.692,187.183001 46.6020009,187.398999 46.422,187.597 C46.2419991,187.795001 45.9720018,188.037999 45.612,188.326 C45.612,188.326 45.3420027,188.541998 44.802,188.974 C44.6579993,189.118001 44.4600013,189.369998 44.208,189.73 C43.6319971,190.486004 43.1640018,190.864 42.804,190.864 C42.4439982,190.864 42.0120025,190.549003 41.508,189.919 C41.0039975,189.288997 40.6980005,188.938 40.59,188.866 C39.4739944,188.073996 38.916,187.462002 38.916,187.03 C38.916,186.597998 39.4739944,185.896005 40.59,184.924 Z" id="icon-bullet"></path>
        </g>
    </g>
</svg>